<?xml version="1.0" encoding="us-ascii" standalone="no"?><svg xmlns="http://www.w3.org/2000/svg" xmlns:xlink="http://www.w3.org/1999/xlink" contentStyleType="text/css" height="1549px" preserveAspectRatio="none" style="width:2457px;height:1549px;background:#FFFFFF;" version="1.1" viewBox="0 0 2457 1549" width="2457px" zoomAndPan="magnify"><defs/><g><rect fill="#FFFFFF" height="29.1328" style="stroke:#181818;stroke-width:1.0;" width="10" x="173.5" y="153.7266"/><rect fill="#FFFFFF" height="111.7266" style="stroke:#181818;stroke-width:1.0;" width="10" x="329.5" y="182.8594"/><rect fill="#FFFFFF" height="29.1328" style="stroke:#181818;stroke-width:1.0;" width="10" x="507" y="323.7188"/><rect fill="#FFFFFF" height="1090.7969" style="stroke:#181818;stroke-width:1.0;" width="10" x="708.5" y="352.8516"/><rect fill="#FFFFFF" height="29.1328" style="stroke:#181818;stroke-width:1.0;" width="10" x="885.5" y="806.9219"/><rect fill="#FFFFFF" height="526.3906" style="stroke:#181818;stroke-width:1.0;" width="10" x="1041" y="836.0547"/><rect fill="#FFFFFF" height="29.1328" style="stroke:#181818;stroke-width:1.0;" width="10" x="1441" y="865.1875"/><rect fill="#FFFFFF" height="29.1328" style="stroke:#181818;stroke-width:1.0;" width="10" x="1733" y="998.8516"/><rect fill="none" height="1083.7969" style="stroke:#000000;stroke-width:1.5;" width="2440.5" x="10" y="367.8516"/><rect fill="none" height="46.2656" style="stroke:#000000;stroke-width:1.5;" width="743" x="945.5" y="909.3203"/><rect fill="none" height="106.5313" style="stroke:#000000;stroke-width:1.5;" width="1037" x="935.5" y="1042.9844"/><rect fill="none" height="46.2656" style="stroke:#000000;stroke-width:1.5;" width="743" x="945.5" y="1096.25"/><rect fill="none" height="75.3984" style="stroke:#000000;stroke-width:1.5;" width="1174" x="945.5" y="1163.5156"/><rect fill="none" height="46.2656" style="stroke:#000000;stroke-width:1.5;" width="1495" x="945.5" y="1282.0469"/><line style="stroke:#181818;stroke-width:0.5;stroke-dasharray:5.0,5.0;" x1="43" x2="43" y1="81.2969" y2="1468.6484"/><line style="stroke:#181818;stroke-width:0.5;stroke-dasharray:5.0,5.0;" x1="178" x2="178" y1="81.2969" y2="1468.6484"/><line style="stroke:#181818;stroke-width:0.5;stroke-dasharray:5.0,5.0;" x1="334.5" x2="334.5" y1="121.9453" y2="1468.6484"/><line style="stroke:#181818;stroke-width:0.5;stroke-dasharray:5.0,5.0;" x1="511.5" x2="511.5" y1="221.5078" y2="1468.6484"/><line style="stroke:#181818;stroke-width:0.5;stroke-dasharray:5.0,5.0;" x1="713.5" x2="713.5" y1="262.8047" y2="1468.6484"/><line style="stroke:#181818;stroke-width:0.5;stroke-dasharray:5.0,5.0;" x1="890.5" x2="890.5" y1="415.6328" y2="1468.6484"/><line style="stroke:#181818;stroke-width:0.5;stroke-dasharray:5.0,5.0;" x1="1045.5" x2="1045.5" y1="456.9297" y2="1468.6484"/><line style="stroke:#181818;stroke-width:0.5;stroke-dasharray:5.0,5.0;" x1="1445.5" x2="1445.5" y1="498.2266" y2="1468.6484"/><line style="stroke:#181818;stroke-width:0.5;stroke-dasharray:5.0,5.0;" x1="1599.5" x2="1599.5" y1="539.5234" y2="1468.6484"/><line style="stroke:#181818;stroke-width:0.5;stroke-dasharray:5.0,5.0;" x1="1737.5" x2="1737.5" y1="580.8203" y2="1468.6484"/><line style="stroke:#181818;stroke-width:0.5;stroke-dasharray:5.0,5.0;" x1="1879.5" x2="1879.5" y1="622.1172" y2="1468.6484"/><line style="stroke:#181818;stroke-width:0.5;stroke-dasharray:5.0,5.0;" x1="2040.5" x2="2040.5" y1="663.4141" y2="1468.6484"/><line style="stroke:#181818;stroke-width:0.5;stroke-dasharray:5.0,5.0;" x1="2204.5" x2="2204.5" y1="704.7109" y2="1468.6484"/><line style="stroke:#181818;stroke-width:0.5;stroke-dasharray:5.0,5.0;" x1="2364.5" x2="2364.5" y1="746.0078" y2="1468.6484"/><text fill="#000000" font-family="sans-serif" font-size="14" lengthAdjust="spacing" textLength="41" x="20" y="77.9951">Guide</text><ellipse cx="43.5" cy="13.5" fill="#E2E2F0" rx="8" ry="8" style="stroke:#181818;stroke-width:0.5;"/><path d="M43.5,21.5 L43.5,48.5 M30.5,29.5 L56.5,29.5 M43.5,48.5 L30.5,63.5 M43.5,48.5 L56.5,63.5 " fill="none" style="stroke:#181818;stroke-width:0.5;"/><text fill="#000000" font-family="sans-serif" font-size="14" lengthAdjust="spacing" textLength="41" x="20" y="1480.6436">Guide</text><ellipse cx="43.5" cy="1492.4453" fill="#E2E2F0" rx="8" ry="8" style="stroke:#181818;stroke-width:0.5;"/><path d="M43.5,1500.4453 L43.5,1527.4453 M30.5,1508.4453 L56.5,1508.4453 M43.5,1527.4453 L30.5,1542.4453 M43.5,1527.4453 L56.5,1542.4453 " fill="none" style="stroke:#181818;stroke-width:0.5;"/><rect fill="#E2E2F0" height="30.2969" rx="2.5" ry="2.5" style="stroke:#181818;stroke-width:0.5;" width="105" x="126" y="50"/><text fill="#000000" font-family="sans-serif" font-size="14" lengthAdjust="spacing" textLength="91" x="133" y="69.9951">TourRequest</text><rect fill="#E2E2F0" height="30.2969" rx="2.5" ry="2.5" style="stroke:#181818;stroke-width:0.5;" width="105" x="126" y="1467.6484"/><text fill="#000000" font-family="sans-serif" font-size="14" lengthAdjust="spacing" textLength="91" x="133" y="1487.6436">TourRequest</text><rect fill="#E2E2F0" height="30.2969" rx="2.5" ry="2.5" style="stroke:#181818;stroke-width:0.5;" width="182" x="243.5" y="1467.6484"/><text fill="#000000" font-family="sans-serif" font-size="14" lengthAdjust="spacing" textLength="168" x="250.5" y="1487.6436">TourRequestViewModel</text><rect fill="#E2E2F0" height="30.2969" rx="2.5" ry="2.5" style="stroke:#181818;stroke-width:0.5;" width="153" x="435.5" y="1467.6484"/><text fill="#000000" font-family="sans-serif" font-size="14" lengthAdjust="spacing" textLength="139" x="442.5" y="1487.6436">RequestDatePicker</text><rect fill="#E2E2F0" height="30.2969" rx="2.5" ry="2.5" style="stroke:#181818;stroke-width:0.5;" width="230" x="598.5" y="1467.6484"/><text fill="#000000" font-family="sans-serif" font-size="14" lengthAdjust="spacing" textLength="216" x="605.5" y="1487.6436">RequestDatePickerViewModel</text><rect fill="#E2E2F0" height="30.2969" rx="2.5" ry="2.5" style="stroke:#181818;stroke-width:0.5;" width="104" x="838.5" y="1467.6484"/><text fill="#000000" font-family="sans-serif" font-size="14" lengthAdjust="spacing" textLength="90" x="845.5" y="1487.6436">AddNewTour</text><rect fill="#E2E2F0" height="30.2969" rx="2.5" ry="2.5" style="stroke:#181818;stroke-width:0.5;" width="181" x="955.5" y="1467.6484"/><text fill="#000000" font-family="sans-serif" font-size="14" lengthAdjust="spacing" textLength="167" x="962.5" y="1487.6436">AddNewTourViewModel</text><rect fill="#E2E2F0" height="30.2969" rx="2.5" ry="2.5" style="stroke:#181818;stroke-width:0.5;" width="129" x="1381.5" y="1467.6484"/><text fill="#000000" font-family="sans-serif" font-size="14" lengthAdjust="spacing" textLength="115" x="1388.5" y="1487.6436">LocationService</text><rect fill="#E2E2F0" height="30.2969" rx="2.5" ry="2.5" style="stroke:#181818;stroke-width:0.5;" width="158" x="1520.5" y="1467.6484"/><text fill="#000000" font-family="sans-serif" font-size="14" lengthAdjust="spacing" textLength="144" x="1527.5" y="1487.6436">TourRequestService</text><rect fill="#E2E2F0" height="30.2969" rx="2.5" ry="2.5" style="stroke:#181818;stroke-width:0.5;" width="99" x="1688.5" y="1467.6484"/><text fill="#000000" font-family="sans-serif" font-size="14" lengthAdjust="spacing" textLength="85" x="1695.5" y="1487.6436">TourService</text><rect fill="#E2E2F0" height="30.2969" rx="2.5" ry="2.5" style="stroke:#181818;stroke-width:0.5;" width="165" x="1797.5" y="1467.6484"/><text fill="#000000" font-family="sans-serif" font-size="14" lengthAdjust="spacing" textLength="151" x="1804.5" y="1487.6436">AppointmentService</text><rect fill="#E2E2F0" height="30.2969" rx="2.5" ry="2.5" style="stroke:#181818;stroke-width:0.5;" width="137" x="1972.5" y="1467.6484"/><text fill="#000000" font-family="sans-serif" font-size="14" lengthAdjust="spacing" textLength="123" x="1979.5" y="1487.6436">TourPointService</text><rect fill="#E2E2F0" height="30.2969" rx="2.5" ry="2.5" style="stroke:#181818;stroke-width:0.5;" width="170" x="2119.5" y="1467.6484"/><text fill="#000000" font-family="sans-serif" font-size="14" lengthAdjust="spacing" textLength="156" x="2126.5" y="1487.6436">TourPointsListService</text><rect fill="#E2E2F0" height="30.2969" rx="2.5" ry="2.5" style="stroke:#181818;stroke-width:0.5;" width="131" x="2299.5" y="1467.6484"/><text fill="#000000" font-family="sans-serif" font-size="14" lengthAdjust="spacing" textLength="117" x="2306.5" y="1487.6436">ImageController</text><rect fill="#FFFFFF" height="29.1328" style="stroke:#181818;stroke-width:1.0;" width="10" x="173.5" y="153.7266"/><rect fill="#FFFFFF" height="111.7266" style="stroke:#181818;stroke-width:1.0;" width="10" x="329.5" y="182.8594"/><rect fill="#FFFFFF" height="29.1328" style="stroke:#181818;stroke-width:1.0;" width="10" x="507" y="323.7188"/><rect fill="#FFFFFF" height="1090.7969" style="stroke:#181818;stroke-width:1.0;" width="10" x="708.5" y="352.8516"/><rect fill="#FFFFFF" height="29.1328" style="stroke:#181818;stroke-width:1.0;" width="10" x="885.5" y="806.9219"/><rect fill="#FFFFFF" height="526.3906" style="stroke:#181818;stroke-width:1.0;" width="10" x="1041" y="836.0547"/><rect fill="#FFFFFF" height="29.1328" style="stroke:#181818;stroke-width:1.0;" width="10" x="1441" y="865.1875"/><rect fill="#FFFFFF" height="29.1328" style="stroke:#181818;stroke-width:1.0;" width="10" x="1733" y="998.8516"/><polygon fill="#181818" points="231.5,108.4297,241.5,112.4297,231.5,116.4297,235.5,112.4297" style="stroke:#181818;stroke-width:1.0;"/><line style="stroke:#181818;stroke-width:1.0;" x1="178.5" x2="237.5" y1="112.4297" y2="112.4297"/><text fill="#000000" font-family="sans-serif" font-size="13" lengthAdjust="spacing" textLength="41" x="185.5" y="107.3638">create</text><rect fill="#E2E2F0" height="30.2969" rx="2.5" ry="2.5" style="stroke:#181818;stroke-width:0.5;" width="182" x="243.5" y="91.2969"/><text fill="#000000" font-family="sans-serif" font-size="14" lengthAdjust="spacing" textLength="168" x="250.5" y="111.292">TourRequestViewModel</text><polygon fill="#181818" points="161.5,149.7266,171.5,153.7266,161.5,157.7266,165.5,153.7266" style="stroke:#181818;stroke-width:1.0;"/><line style="stroke:#181818;stroke-width:1.0;" x1="43.5" x2="167.5" y1="153.7266" y2="153.7266"/><text fill="#000000" font-family="sans-serif" font-size="13" lengthAdjust="spacing" textLength="111" x="50.5" y="148.6606">AcceptCommand</text><polygon fill="#181818" points="317.5,178.8594,327.5,182.8594,317.5,186.8594,321.5,182.8594" style="stroke:#181818;stroke-width:1.0;"/><line style="stroke:#181818;stroke-width:1.0;" x1="178.5" x2="323.5" y1="182.8594" y2="182.8594"/><text fill="#000000" font-family="sans-serif" font-size="13" lengthAdjust="spacing" textLength="54" x="185.5" y="177.7935">Accept()</text><polygon fill="#181818" points="423.5,207.9922,433.5,211.9922,423.5,215.9922,427.5,211.9922" style="stroke:#181818;stroke-width:1.0;"/><line style="stroke:#181818;stroke-width:1.0;" x1="339.5" x2="429.5" y1="211.9922" y2="211.9922"/><text fill="#000000" font-family="sans-serif" font-size="13" lengthAdjust="spacing" textLength="41" x="346.5" y="206.9263">create</text><rect fill="#E2E2F0" height="30.2969" rx="2.5" ry="2.5" style="stroke:#181818;stroke-width:0.5;" width="153" x="435.5" y="190.8594"/><text fill="#000000" font-family="sans-serif" font-size="14" lengthAdjust="spacing" textLength="139" x="442.5" y="210.8545">RequestDatePicker</text><polygon fill="#181818" points="586.5,249.2891,596.5,253.2891,586.5,257.2891,590.5,253.2891" style="stroke:#181818;stroke-width:1.0;"/><line style="stroke:#181818;stroke-width:1.0;" x1="512" x2="592.5" y1="253.2891" y2="253.2891"/><text fill="#000000" font-family="sans-serif" font-size="13" lengthAdjust="spacing" textLength="41" x="519" y="248.2231">create</text><rect fill="#E2E2F0" height="30.2969" rx="2.5" ry="2.5" style="stroke:#181818;stroke-width:0.5;" width="230" x="598.5" y="232.1563"/><text fill="#000000" font-family="sans-serif" font-size="14" lengthAdjust="spacing" textLength="216" x="605.5" y="252.1514">RequestDatePickerViewModel</text><polygon fill="#181818" points="54.5,290.5859,44.5,294.5859,54.5,298.5859,50.5,294.5859" style="stroke:#181818;stroke-width:1.0;"/><line style="stroke:#181818;stroke-width:1.0;stroke-dasharray:2.0,2.0;" x1="48.5" x2="333.5" y1="294.5859" y2="294.5859"/><text fill="#000000" font-family="sans-serif" font-size="13" lengthAdjust="spacing" textLength="122" x="60.5" y="289.52">RequestDatePicker</text><polygon fill="#181818" points="495,319.7188,505,323.7188,495,327.7188,499,323.7188" style="stroke:#181818;stroke-width:1.0;"/><line style="stroke:#181818;stroke-width:1.0;" x1="43.5" x2="501" y1="323.7188" y2="323.7188"/><text fill="#000000" font-family="sans-serif" font-size="13" lengthAdjust="spacing" textLength="111" x="50.5" y="318.6528">AcceptCommand</text><polygon fill="#181818" points="696.5,348.8516,706.5,352.8516,696.5,356.8516,700.5,352.8516" style="stroke:#181818;stroke-width:1.0;"/><line style="stroke:#181818;stroke-width:1.0;" x1="512" x2="702.5" y1="352.8516" y2="352.8516"/><text fill="#000000" font-family="sans-serif" font-size="13" lengthAdjust="spacing" textLength="54" x="519" y="347.7856">Accept()</text><path d="M10,367.8516 L76,367.8516 L76,374.9844 L66,384.9844 L10,384.9844 L10,367.8516 " fill="#EEEEEE" style="stroke:#000000;stroke-width:1.5;"/><rect fill="none" height="1083.7969" style="stroke:#000000;stroke-width:1.5;" width="2440.5" x="10" y="367.8516"/><text fill="#000000" font-family="sans-serif" font-size="13" font-weight="bold" lengthAdjust="spacing" textLength="21" x="25" y="380.9185">alt</text><text fill="#000000" font-family="sans-serif" font-size="11" font-weight="bold" lengthAdjust="spacing" textLength="185" x="91" y="380.062">[IsGuideFree(appointment)]</text><polygon fill="#181818" points="826.5,402.1172,836.5,406.1172,826.5,410.1172,830.5,406.1172" style="stroke:#181818;stroke-width:1.0;"/><line style="stroke:#181818;stroke-width:1.0;" x1="718.5" x2="832.5" y1="406.1172" y2="406.1172"/><text fill="#000000" font-family="sans-serif" font-size="13" lengthAdjust="spacing" textLength="41" x="725.5" y="401.0513">create</text><rect fill="#E2E2F0" height="30.2969" rx="2.5" ry="2.5" style="stroke:#181818;stroke-width:0.5;" width="104" x="838.5" y="384.9844"/><text fill="#000000" font-family="sans-serif" font-size="14" lengthAdjust="spacing" textLength="90" x="845.5" y="404.9795">AddNewTour</text><polygon fill="#181818" points="943.5,443.4141,953.5,447.4141,943.5,451.4141,947.5,447.4141" style="stroke:#181818;stroke-width:1.0;"/><line style="stroke:#181818;stroke-width:1.0;" x1="890.5" x2="949.5" y1="447.4141" y2="447.4141"/><text fill="#000000" font-family="sans-serif" font-size="13" lengthAdjust="spacing" textLength="41" x="897.5" y="442.3481">create</text><rect fill="#E2E2F0" height="30.2969" rx="2.5" ry="2.5" style="stroke:#181818;stroke-width:0.5;" width="181" x="955.5" y="426.2813"/><text fill="#000000" font-family="sans-serif" font-size="14" lengthAdjust="spacing" textLength="167" x="962.5" y="446.2764">AddNewTourViewModel</text><polygon fill="#181818" points="1369.5,484.7109,1379.5,488.7109,1369.5,492.7109,1373.5,488.7109" style="stroke:#181818;stroke-width:1.0;"/><line style="stroke:#181818;stroke-width:1.0;" x1="1046" x2="1375.5" y1="488.7109" y2="488.7109"/><text fill="#000000" font-family="sans-serif" font-size="13" lengthAdjust="spacing" textLength="41" x="1053" y="483.645">create</text><rect fill="#E2E2F0" height="30.2969" rx="2.5" ry="2.5" style="stroke:#181818;stroke-width:0.5;" width="129" x="1381.5" y="467.5781"/><text fill="#000000" font-family="sans-serif" font-size="14" lengthAdjust="spacing" textLength="115" x="1388.5" y="487.5732">LocationService</text><polygon fill="#181818" points="1508.5,526.0078,1518.5,530.0078,1508.5,534.0078,1512.5,530.0078" style="stroke:#181818;stroke-width:1.0;"/><line style="stroke:#181818;stroke-width:1.0;" x1="1046" x2="1514.5" y1="530.0078" y2="530.0078"/><text fill="#000000" font-family="sans-serif" font-size="13" lengthAdjust="spacing" textLength="41" x="1053" y="524.9419">create</text><rect fill="#E2E2F0" height="30.2969" rx="2.5" ry="2.5" style="stroke:#181818;stroke-width:0.5;" width="158" x="1520.5" y="508.875"/><text fill="#000000" font-family="sans-serif" font-size="14" lengthAdjust="spacing" textLength="144" x="1527.5" y="528.8701">TourRequestService</text><polygon fill="#181818" points="1676.5,567.3047,1686.5,571.3047,1676.5,575.3047,1680.5,571.3047" style="stroke:#181818;stroke-width:1.0;"/><line style="stroke:#181818;stroke-width:1.0;" x1="1046" x2="1682.5" y1="571.3047" y2="571.3047"/><text fill="#000000" font-family="sans-serif" font-size="13" lengthAdjust="spacing" textLength="41" x="1053" y="566.2388">create</text><rect fill="#E2E2F0" height="30.2969" rx="2.5" ry="2.5" style="stroke:#181818;stroke-width:0.5;" width="99" x="1688.5" y="550.1719"/><text fill="#000000" font-family="sans-serif" font-size="14" lengthAdjust="spacing" textLength="85" x="1695.5" y="570.167">TourService</text><polygon fill="#181818" points="1785.5,608.6016,1795.5,612.6016,1785.5,616.6016,1789.5,612.6016" style="stroke:#181818;stroke-width:1.0;"/><line style="stroke:#181818;stroke-width:1.0;" x1="1046" x2="1791.5" y1="612.6016" y2="612.6016"/><text fill="#000000" font-family="sans-serif" font-size="13" lengthAdjust="spacing" textLength="41" x="1053" y="607.5356">create</text><rect fill="#E2E2F0" height="30.2969" rx="2.5" ry="2.5" style="stroke:#181818;stroke-width:0.5;" width="165" x="1797.5" y="591.4688"/><text fill="#000000" font-family="sans-serif" font-size="14" lengthAdjust="spacing" textLength="151" x="1804.5" y="611.4639">AppointmentService</text><polygon fill="#181818" points="1960.5,649.8984,1970.5,653.8984,1960.5,657.8984,1964.5,653.8984" style="stroke:#181818;stroke-width:1.0;"/><line style="stroke:#181818;stroke-width:1.0;" x1="1046" x2="1966.5" y1="653.8984" y2="653.8984"/><text fill="#000000" font-family="sans-serif" font-size="13" lengthAdjust="spacing" textLength="41" x="1053" y="648.8325">create</text><rect fill="#E2E2F0" height="30.2969" rx="2.5" ry="2.5" style="stroke:#181818;stroke-width:0.5;" width="137" x="1972.5" y="632.7656"/><text fill="#000000" font-family="sans-serif" font-size="14" lengthAdjust="spacing" textLength="123" x="1979.5" y="652.7607">TourPointService</text><polygon fill="#181818" points="2107.5,691.1953,2117.5,695.1953,2107.5,699.1953,2111.5,695.1953" style="stroke:#181818;stroke-width:1.0;"/><line style="stroke:#181818;stroke-width:1.0;" x1="1046" x2="2113.5" y1="695.1953" y2="695.1953"/><text fill="#000000" font-family="sans-serif" font-size="13" lengthAdjust="spacing" textLength="41" x="1053" y="690.1294">create</text><rect fill="#E2E2F0" height="30.2969" rx="2.5" ry="2.5" style="stroke:#181818;stroke-width:0.5;" width="170" x="2119.5" y="674.0625"/><text fill="#000000" font-family="sans-serif" font-size="14" lengthAdjust="spacing" textLength="156" x="2126.5" y="694.0576">TourPointsListService</text><polygon fill="#181818" points="2287.5,732.4922,2297.5,736.4922,2287.5,740.4922,2291.5,736.4922" style="stroke:#181818;stroke-width:1.0;"/><line style="stroke:#181818;stroke-width:1.0;" x1="1046" x2="2293.5" y1="736.4922" y2="736.4922"/><text fill="#000000" font-family="sans-serif" font-size="13" lengthAdjust="spacing" textLength="41" x="1053" y="731.4263">create</text><rect fill="#E2E2F0" height="30.2969" rx="2.5" ry="2.5" style="stroke:#181818;stroke-width:0.5;" width="131" x="2299.5" y="715.3594"/><text fill="#000000" font-family="sans-serif" font-size="14" lengthAdjust="spacing" textLength="117" x="2306.5" y="735.3545">ImageController</text><polygon fill="#181818" points="54.5,773.7891,44.5,777.7891,54.5,781.7891,50.5,777.7891" style="stroke:#181818;stroke-width:1.0;"/><line style="stroke:#181818;stroke-width:1.0;stroke-dasharray:2.0,2.0;" x1="48.5" x2="707.5" y1="777.7891" y2="777.7891"/><text fill="#000000" font-family="sans-serif" font-size="13" lengthAdjust="spacing" textLength="82" x="60.5" y="772.7231">AddNewTour</text><polygon fill="#181818" points="873.5,802.9219,883.5,806.9219,873.5,810.9219,877.5,806.9219" style="stroke:#181818;stroke-width:1.0;"/><line style="stroke:#181818;stroke-width:1.0;" x1="43.5" x2="879.5" y1="806.9219" y2="806.9219"/><text fill="#000000" font-family="sans-serif" font-size="13" lengthAdjust="spacing" textLength="112" x="50.5" y="801.856">SubmitCommand</text><polygon fill="#181818" points="1029,832.0547,1039,836.0547,1029,840.0547,1033,836.0547" style="stroke:#181818;stroke-width:1.0;"/><line style="stroke:#181818;stroke-width:1.0;" x1="890.5" x2="1035" y1="836.0547" y2="836.0547"/><text fill="#000000" font-family="sans-serif" font-size="13" lengthAdjust="spacing" textLength="55" x="897.5" y="830.9888">Submit()</text><polygon fill="#181818" points="1429,861.1875,1439,865.1875,1429,869.1875,1433,865.1875" style="stroke:#181818;stroke-width:1.0;"/><line style="stroke:#181818;stroke-width:1.0;" x1="1051" x2="1435" y1="865.1875" y2="865.1875"/><text fill="#000000" font-family="sans-serif" font-size="13" lengthAdjust="spacing" textLength="371" x="1058" y="860.1216">Create(SharedViewModel.City, SharedViewModel.Country)</text><polygon fill="#181818" points="1062,890.3203,1052,894.3203,1062,898.3203,1058,894.3203" style="stroke:#181818;stroke-width:1.0;"/><line style="stroke:#181818;stroke-width:1.0;stroke-dasharray:2.0,2.0;" x1="1056" x2="1445" y1="894.3203" y2="894.3203"/><text fill="#000000" font-family="sans-serif" font-size="13" lengthAdjust="spacing" textLength="57" x="1068" y="889.2544">_location</text><path d="M945.5,909.3203 L1017.5,909.3203 L1017.5,916.4531 L1007.5,926.4531 L945.5,926.4531 L945.5,909.3203 " fill="#EEEEEE" style="stroke:#000000;stroke-width:1.5;"/><rect fill="none" height="46.2656" style="stroke:#000000;stroke-width:1.5;" width="743" x="945.5" y="909.3203"/><text fill="#000000" font-family="sans-serif" font-size="13" font-weight="bold" lengthAdjust="spacing" textLength="27" x="960.5" y="922.3872">opt</text><text fill="#000000" font-family="sans-serif" font-size="11" font-weight="bold" lengthAdjust="spacing" textLength="78" x="1032.5" y="921.5308">[!IsEnabled]</text><polygon fill="#181818" points="1587.5,943.5859,1597.5,947.5859,1587.5,951.5859,1591.5,947.5859" style="stroke:#181818;stroke-width:1.0;"/><line style="stroke:#181818;stroke-width:1.0;" x1="1051" x2="1593.5" y1="947.5859" y2="947.5859"/><text fill="#000000" font-family="sans-serif" font-size="13" lengthAdjust="spacing" textLength="180" x="1058" y="942.52">MarkAsAccepted(RequestId)</text><polygon fill="#181818" points="1721,994.8516,1731,998.8516,1721,1002.8516,1725,998.8516" style="stroke:#181818;stroke-width:1.0;"/><line style="stroke:#181818;stroke-width:1.0;" x1="1051" x2="1727" y1="998.8516" y2="998.8516"/><text fill="#000000" font-family="sans-serif" font-size="13" lengthAdjust="spacing" textLength="279" x="1058" y="978.6528">Create(_location, NameOfTour, Description,</text><text fill="#000000" font-family="sans-serif" font-size="13" lengthAdjust="spacing" textLength="387" x="1058" y="993.7856">SharedViewModel.Language, MaxGuests, Duration, Guide.Id)</text><polygon fill="#181818" points="1062,1023.9844,1052,1027.9844,1062,1031.9844,1058,1027.9844" style="stroke:#181818;stroke-width:1.0;"/><line style="stroke:#181818;stroke-width:1.0;stroke-dasharray:2.0,2.0;" x1="1056" x2="1737" y1="1027.9844" y2="1027.9844"/><text fill="#000000" font-family="sans-serif" font-size="13" lengthAdjust="spacing" textLength="37" x="1068" y="1022.9185">tourId</text><path d="M935.5,1042.9844 L1013.5,1042.9844 L1013.5,1050.1172 L1003.5,1060.1172 L935.5,1060.1172 L935.5,1042.9844 " fill="#EEEEEE" style="stroke:#000000;stroke-width:1.5;"/><rect fill="none" height="106.5313" style="stroke:#000000;stroke-width:1.5;" width="1037" x="935.5" y="1042.9844"/><text fill="#000000" font-family="sans-serif" font-size="13" font-weight="bold" lengthAdjust="spacing" textLength="33" x="950.5" y="1056.0513">loop</text><text fill="#000000" font-family="sans-serif" font-size="11" font-weight="bold" lengthAdjust="spacing" textLength="169" x="1028.5" y="1055.1948">[DateTime date in Dates]</text><polygon fill="#181818" points="1868,1077.25,1878,1081.25,1868,1085.25,1872,1081.25" style="stroke:#181818;stroke-width:1.0;"/><line style="stroke:#181818;stroke-width:1.0;" x1="1051" x2="1874" y1="1081.25" y2="1081.25"/><text fill="#000000" font-family="sans-serif" font-size="13" lengthAdjust="spacing" textLength="127" x="1058" y="1076.1841">Create(tourId, date)</text><path d="M945.5,1096.25 L1017.5,1096.25 L1017.5,1103.3828 L1007.5,1113.3828 L945.5,1113.3828 L945.5,1096.25 " fill="#EEEEEE" style="stroke:#000000;stroke-width:1.5;"/><rect fill="none" height="46.2656" style="stroke:#000000;stroke-width:1.5;" width="743" x="945.5" y="1096.25"/><text fill="#000000" font-family="sans-serif" font-size="13" font-weight="bold" lengthAdjust="spacing" textLength="27" x="960.5" y="1109.3169">opt</text><text fill="#000000" font-family="sans-serif" font-size="11" font-weight="bold" lengthAdjust="spacing" textLength="78" x="1032.5" y="1108.4604">[!IsEnabled]</text><polygon fill="#181818" points="1587.5,1130.5156,1597.5,1134.5156,1587.5,1138.5156,1591.5,1134.5156" style="stroke:#181818;stroke-width:1.0;"/><line style="stroke:#181818;stroke-width:1.0;" x1="1051" x2="1593.5" y1="1134.5156" y2="1134.5156"/><text fill="#000000" font-family="sans-serif" font-size="13" lengthAdjust="spacing" textLength="331" x="1058" y="1129.4497">AddAcceptedAppointment(RequestId,date,Guide.Id)</text><path d="M945.5,1163.5156 L1017.5,1163.5156 L1017.5,1170.6484 L1007.5,1180.6484 L945.5,1180.6484 L945.5,1163.5156 " fill="#EEEEEE" style="stroke:#000000;stroke-width:1.5;"/><rect fill="none" height="75.3984" style="stroke:#000000;stroke-width:1.5;" width="1174" x="945.5" y="1163.5156"/><text fill="#000000" font-family="sans-serif" font-size="13" font-weight="bold" lengthAdjust="spacing" textLength="27" x="960.5" y="1176.5825">opt</text><text fill="#000000" font-family="sans-serif" font-size="11" font-weight="bold" lengthAdjust="spacing" textLength="97" x="1032.5" y="1176.1213">[StartPoint !=</text><text fill="#000000" font-family="monospace" font-size="11" font-weight="bold" lengthAdjust="spacing" textLength="98" x="1140.5" y="1175.6575">&amp;&amp;&#160;EndPoint&#160;!=</text><text fill="#000000" font-family="sans-serif" font-size="11" font-weight="bold" lengthAdjust="spacing" textLength="5" x="1245.5" y="1176.1213">]</text><polygon fill="#181818" points="2029,1197.7813,2039,1201.7813,2029,1205.7813,2033,1201.7813" style="stroke:#181818;stroke-width:1.0;"/><line style="stroke:#181818;stroke-width:1.0;" x1="1051" x2="2035" y1="1201.7813" y2="1201.7813"/><text fill="#000000" font-family="sans-serif" font-size="13" lengthAdjust="spacing" textLength="155" x="1058" y="1196.7153">Create(StartPoint, false)</text><polygon fill="#181818" points="2029,1226.9141,2039,1230.9141,2029,1234.9141,2033,1230.9141" style="stroke:#181818;stroke-width:1.0;"/><line style="stroke:#181818;stroke-width:1.0;" x1="1051" x2="2035" y1="1230.9141" y2="1230.9141"/><text fill="#000000" font-family="sans-serif" font-size="13" lengthAdjust="spacing" textLength="148" x="1058" y="1225.8481">Create(EndPoint, false)</text><polygon fill="#181818" points="2192.5,1263.0469,2202.5,1267.0469,2192.5,1271.0469,2196.5,1267.0469" style="stroke:#181818;stroke-width:1.0;"/><line style="stroke:#181818;stroke-width:1.0;" x1="1051" x2="2198.5" y1="1267.0469" y2="1267.0469"/><text fill="#000000" font-family="sans-serif" font-size="13" lengthAdjust="spacing" textLength="155" x="1058" y="1261.981">Create(tourId, pointsIds)</text><path d="M945.5,1282.0469 L1023.5,1282.0469 L1023.5,1289.1797 L1013.5,1299.1797 L945.5,1299.1797 L945.5,1282.0469 " fill="#EEEEEE" style="stroke:#000000;stroke-width:1.5;"/><rect fill="none" height="46.2656" style="stroke:#000000;stroke-width:1.5;" width="1495" x="945.5" y="1282.0469"/><text fill="#000000" font-family="sans-serif" font-size="13" font-weight="bold" lengthAdjust="spacing" textLength="33" x="960.5" y="1295.1138">loop</text><text fill="#000000" font-family="sans-serif" font-size="11" font-weight="bold" lengthAdjust="spacing" textLength="161" x="1038.5" y="1294.2573">[string image in Images]</text><polygon fill="#181818" points="2353,1316.3125,2363,1320.3125,2353,1324.3125,2357,1320.3125" style="stroke:#181818;stroke-width:1.0;"/><line style="stroke:#181818;stroke-width:1.0;" x1="1051" x2="2359" y1="1320.3125" y2="1320.3125"/><text fill="#000000" font-family="sans-serif" font-size="13" lengthAdjust="spacing" textLength="303" x="1058" y="1315.2466">Create(image, tourId, Model.PictureType.TOUR)</text><line style="stroke:#181818;stroke-width:1.0;" x1="1051" x2="1093" y1="1361.4453" y2="1361.4453"/><line style="stroke:#181818;stroke-width:1.0;" x1="1093" x2="1093" y1="1361.4453" y2="1374.4453"/><line style="stroke:#181818;stroke-width:1.0;" x1="1046" x2="1093" y1="1374.4453" y2="1374.4453"/><polygon fill="#181818" points="1056,1370.4453,1046,1374.4453,1056,1378.4453,1052,1374.4453" style="stroke:#181818;stroke-width:1.0;"/><text fill="#000000" font-family="sans-serif" font-size="13" lengthAdjust="spacing" textLength="45" x="1058" y="1356.3794">Close()</text><line style="stroke:#000000;stroke-width:1.0;stroke-dasharray:2.0,2.0;" x1="10" x2="2450.5" y1="1378.4453" y2="1378.4453"/><text fill="#000000" font-family="sans-serif" font-size="11" font-weight="bold" lengthAdjust="spacing" textLength="191" x="15" y="1388.6558">[!IsGuideFree(appointment)]</text><polygon fill="#181818" points="54.5,1439.6484,44.5,1443.6484,54.5,1447.6484,50.5,1443.6484" style="stroke:#181818;stroke-width:1.0;"/><line style="stroke:#181818;stroke-width:1.0;stroke-dasharray:2.0,2.0;" x1="48.5" x2="712.5" y1="1443.6484" y2="1443.6484"/><text fill="#000000" font-family="sans-serif" font-size="13" lengthAdjust="spacing" textLength="112" x="60.5" y="1408.3169">You already have</text><text fill="#000000" font-family="sans-serif" font-size="13" lengthAdjust="spacing" textLength="206" x="64.5" y="1423.4497">an organized tour in that period.</text><text fill="#000000" font-family="sans-serif" font-size="13" lengthAdjust="spacing" textLength="103" x="60.5" y="1438.5825">Try another one</text><!--SRC=[dLRBRjim4BppAxOv17QW-0CCj83Xf861l12x1Ge4A1XnOnEHI9MaahfVNvAn94gYKha77qpkpkpEZbQYgP4AhahEa922AiDJNb1XO2DBzO2_IjHcwFmxnxSRoJ0ZX0J7SFub6WLdPtD85L9ZgOYdx8JEOP6cM9Ybp7Cg65caXh_Qy5OnOwWgeCcKN22DeiImcuQYzLkomzc5JRpdwGigsnG4NP5-G2mhhacSrEPxhUPzc87cWhdKAlVh6XIxJtDiLt7v-xZ3bA6r2CqChBHlvQj2dD2Ya5oO78MPHcfh3Mp1s2s-EN52gOFJLanyBh5xctOjKsgu56jKhpp5E7uh8vZHSKdZenUDDiTHtBkq_qZHr_oORbOvtU9I2gDabg5gxuIFXzay20rsO_1Wf7DObqyvxpixo2F_za05qtPnW171RVbsd6_ciFJzJzOxgf3LeRCbD_i4UgUojEBjfmrx1uzqVNa-rDxFx10PzjT58x8my6cbBmLzof2Dj_OSRgXwMUZtLO1iShXUiIb1mKROlLQcBZI1MvhZtRCBIk02TQfuuIyUHLUeQogsfJLROkluVUMOjKqfrG786sVcYccz2QgsmwTkK41Z_wvOTmlNocLI5k2ilE4v0dFtNFW3JG1Wz1DSw_3EbtYegOFep0PW63Os81jQJITWRGQLEAAaKSgYkycvdxV5sjWF0xy5uDDdE3c1qrEu52mu6RjnvjKpK2Ccy4mpRTiy4g7Yh_DzjSTiiPxSNXczOdfwcAasYeijSBVBt4ZzKjCZLruDxzCJg5ZUNMktdYaLRlO5pZPttnvy_J3OGDIMoqng7DfQmOP2gu-ppz2RTUGs_Y5Be9djYUrXHr_nKG0L8DMM2lu7cM_GgMHsr421YaisUnGRjRTXqkpiIq0A_F13eQdPYl4N]--></g></svg>